<svg width="40" height="40" viewBox="0 0 40 40" fill="none" xmlns="http://www.w3.org/2000/svg">
<path d="M0 12C0 5.37258 5.37258 0 12 0H28C34.6274 0 40 5.37258 40 12V28C40 34.6274 34.6274 40 28 40H12C5.37258 40 0 34.6274 0 28V12Z" fill="#FFFBFB" fill-opacity="0.7"/>
<path d="M20 21.5C21.2725 21.5 23.2094 21.8234 24.8154 22.4668C25.6179 22.7883 26.3063 23.1773 26.7861 23.6201C27.2626 24.0599 27.5 24.5186 27.5 25V27C27.5 27.2739 27.2739 27.5 27 27.5H13C12.7261 27.5 12.5 27.2739 12.5 27V25C12.5 24.5186 12.7374 24.0599 13.2139 23.6201C13.6937 23.1773 14.3821 22.7883 15.1846 22.4668C16.7906 21.8234 18.7275 21.5 20 21.5ZM20 12.5C21.9339 12.5 23.5 14.0661 23.5 16C23.5 17.9339 21.9339 19.5 20 19.5C18.0661 19.5 16.5 17.9339 16.5 16C16.5 14.0661 18.0661 12.5 20 12.5ZM20 13.5C18.6239 13.5 17.5 14.6239 17.5 16C17.5 17.3761 18.6239 18.5 20 18.5C21.3761 18.5 22.5 17.3761 22.5 16C22.5 14.6239 21.3761 13.5 20 13.5ZM26.5 24.9307L26.4814 24.8643C26.4201 24.6466 26.2722 24.4729 26.1387 24.3467C25.996 24.2119 25.8171 24.083 25.6191 23.9619C25.2213 23.7185 24.6973 23.477 24.1074 23.2637C22.929 22.8376 21.4208 22.5 20 22.5C18.5792 22.5 17.0704 22.8372 15.8916 23.2646C15.3017 23.4786 14.778 23.7217 14.3799 23.9668C14.1815 24.0889 14.0022 24.2192 13.8594 24.3555C13.7254 24.4833 13.5792 24.6578 13.5186 24.876L13.5 24.9414V26.5H26.5V24.9307Z" fill="#7F207B" stroke="#7F207B"/>
</svg>
