<svg width="24" height="25" viewBox="0 0 24 25" fill="none" xmlns="http://www.w3.org/2000/svg">
<path d="M8 10.449L16 10.449" stroke="#4A4A4A" stroke-width="1.5" stroke-linecap="round" stroke-linejoin="round"/>
<path d="M7 14.449L8 14.449" stroke="#4A4A4A" stroke-width="1.5" stroke-linecap="round" stroke-linejoin="round"/>
<path d="M16 14.449L17 14.449" stroke="#4A4A4A" stroke-width="1.5" stroke-linecap="round" stroke-linejoin="round"/>
<path d="M3 18.449V11.8595C3 11.5886 3.05502 11.3206 3.16171 11.0717L5.4805 5.66114C5.79566 4.92577 6.51874 4.44897 7.31879 4.44897H16.6812C17.4813 4.44897 18.2043 4.92577 18.5195 5.66114L20.8383 11.0717C20.945 11.3206 21 11.5886 21 11.8595V18.449M3 18.449V20.849C3 21.1803 3.26863 21.449 3.6 21.449H6.4C6.73137 21.449 7 21.1803 7 20.849V18.449M3 18.449H7M21 18.449V20.849C21 21.1803 20.7314 21.449 20.4 21.449H17.6C17.2686 21.449 17 21.1803 17 20.849V18.449M21 18.449H17M7 18.449H17" stroke="#4A4A4A" stroke-width="1.5"/>
</svg>
