<svg width="40" height="40" viewBox="0 0 40 40" fill="none" xmlns="http://www.w3.org/2000/svg">
<path d="M0 12C0 5.37258 5.37258 0 12 0H28C34.6274 0 40 5.37258 40 12V28C40 34.6274 34.6274 40 28 40H12C5.37258 40 0 34.6274 0 28V12Z" fill="white"/>
<path d="M11 29L20 29H29" stroke="#7F207B" stroke-width="1.5" stroke-linecap="round" stroke-linejoin="round"/>
<path d="M20.2218 13.8279L23.0503 10.9995L28 15.9492L25.1716 18.7776M20.2218 13.8279L14.6152 19.4345C14.4277 19.622 14.3223 19.8764 14.3223 20.1416L14.3223 24.6771L18.8579 24.6771C19.1231 24.6771 19.3774 24.5718 19.565 24.3842L25.1716 18.7776M20.2218 13.8279L25.1716 18.7776" stroke="#7F207B" stroke-width="1.5" stroke-linecap="round" stroke-linejoin="round"/>
</svg>
