<svg width="20" height="20" viewBox="0 0 20 20" fill="none" xmlns="http://www.w3.org/2000/svg">
<path d="M4.16667 4.16667H9.16667C9.625 4.16667 10 3.79167 10 3.33333C10 2.875 9.625 2.5 9.16667 2.5H4.16667C3.25 2.5 2.5 3.25 2.5 4.16667V15.8333C2.5 16.75 3.25 17.5 4.16667 17.5H9.16667C9.625 17.5 10 17.125 10 16.6667C10 16.2083 9.625 15.8333 9.16667 15.8333H4.16667V4.16667Z" fill="black" fill-opacity="0.54"/>
<path d="M17.2083 9.70833L14.8833 7.38333C14.6167 7.11667 14.1667 7.3 14.1667 7.675V9.16667H8.33333C7.875 9.16667 7.5 9.54167 7.5 10C7.5 10.4583 7.875 10.8333 8.33333 10.8333H14.1667V12.325C14.1667 12.7 14.6167 12.8833 14.875 12.6167L17.2 10.2917C17.3667 10.1333 17.3667 9.86667 17.2083 9.70833Z" fill="black" fill-opacity="0.54"/>
</svg>
