<svg width="90" height="50" viewBox="0 0 90 50" fill="none" xmlns="http://www.w3.org/2000/svg">
    <rect width="90" height="50" rx="10" fill="#181818"/>
    <path d="M24.576 30.5V19.5909H26.5522V28.8434H31.3569V30.5H24.576ZM42.3952 25.0455C42.3952 26.2209 42.175 27.2276 41.7346 28.0657C41.2979 28.9002 40.7013 29.5394 39.9449 29.9833C39.192 30.4272 38.338 30.6491 37.3827 30.6491C36.4275 30.6491 35.5716 30.4272 34.8153 29.9833C34.0624 29.5359 33.4658 28.8949 33.0255 28.0604C32.5887 27.2223 32.3703 26.2173 32.3703 25.0455C32.3703 23.87 32.5887 22.8651 33.0255 22.0305C33.4658 21.1925 34.0624 20.5515 34.8153 20.1076C35.5716 19.6637 36.4275 19.4418 37.3827 19.4418C38.338 19.4418 39.192 19.6637 39.9449 20.1076C40.7013 20.5515 41.2979 21.1925 41.7346 22.0305C42.175 22.8651 42.3952 23.87 42.3952 25.0455ZM40.4083 25.0455C40.4083 24.218 40.2787 23.5202 40.0194 22.9521C39.7638 22.3803 39.4086 21.9489 38.9541 21.6577C38.4996 21.3629 37.9758 21.2156 37.3827 21.2156C36.7897 21.2156 36.2659 21.3629 35.8113 21.6577C35.3568 21.9489 34.9999 22.3803 34.7407 22.9521C34.485 23.5202 34.3572 24.218 34.3572 25.0455C34.3572 25.8729 34.485 26.5724 34.7407 27.1442C34.9999 27.7124 35.3568 28.1438 35.8113 28.4386C36.2659 28.7298 36.7897 28.8754 37.3827 28.8754C37.9758 28.8754 38.4996 28.7298 38.9541 28.4386C39.4086 28.1438 39.7638 27.7124 40.0194 27.1442C40.2787 26.5724 40.4083 25.8729 40.4083 25.0455ZM51.5717 23.0746C51.483 22.7869 51.3604 22.5295 51.2042 22.3022C51.0515 22.0714 50.8668 21.8743 50.6502 21.7109C50.4371 21.5476 50.1921 21.4251 49.9151 21.3434C49.6381 21.2582 49.3363 21.2156 49.0096 21.2156C48.4237 21.2156 47.9016 21.3629 47.4435 21.6577C46.9854 21.9524 46.625 22.3857 46.3622 22.9574C46.103 23.5256 45.9734 24.218 45.9734 25.0348C45.9734 25.8587 46.103 26.5565 46.3622 27.1282C46.6214 27.6999 46.9819 28.1349 47.4435 28.4332C47.9052 28.728 48.4414 28.8754 49.0522 28.8754C49.6062 28.8754 50.0856 28.7688 50.4904 28.5558C50.8988 28.3427 51.2131 28.0408 51.4332 27.6502C51.6534 27.256 51.7635 26.7944 51.7635 26.2653L52.2109 26.3345H49.2493V24.7898H53.6758V26.1001C53.6758 27.0341 53.4769 27.842 53.0792 28.5238C52.6815 29.2056 52.1346 29.7312 51.4386 30.1005C50.7425 30.4663 49.9435 30.6491 49.0415 30.6491C48.0366 30.6491 47.1541 30.4237 46.3942 29.9727C45.6378 29.5181 45.0465 28.8736 44.6204 28.0391C44.1978 27.201 43.9865 26.2067 43.9865 25.0561C43.9865 24.1754 44.1108 23.3888 44.3594 22.6964C44.6115 22.0039 44.9631 21.4162 45.4141 20.9332C45.8651 20.4467 46.3942 20.0774 47.0014 19.8253C47.6087 19.5696 48.2692 19.4418 48.983 19.4418C49.5866 19.4418 50.1495 19.5305 50.6715 19.7081C51.1935 19.8821 51.657 20.1307 52.0618 20.4538C52.4702 20.777 52.8058 21.1605 53.0685 21.6044C53.3313 22.0483 53.5036 22.5384 53.5852 23.0746H51.5717ZM65.3346 25.0455C65.3346 26.2209 65.1144 27.2276 64.6741 28.0657C64.2373 28.9002 63.6407 29.5394 62.8843 29.9833C62.1315 30.4272 61.2774 30.6491 60.3222 30.6491C59.3669 30.6491 58.5111 30.4272 57.7547 29.9833C57.0019 29.5359 56.4053 28.8949 55.9649 28.0604C55.5281 27.2223 55.3097 26.2173 55.3097 25.0455C55.3097 23.87 55.5281 22.8651 55.9649 22.0305C56.4053 21.1925 57.0019 20.5515 57.7547 20.1076C58.5111 19.6637 59.3669 19.4418 60.3222 19.4418C61.2774 19.4418 62.1315 19.6637 62.8843 20.1076C63.6407 20.5515 64.2373 21.1925 64.6741 22.0305C65.1144 22.8651 65.3346 23.87 65.3346 25.0455ZM63.3477 25.0455C63.3477 24.218 63.2181 23.5202 62.9589 22.9521C62.7032 22.3803 62.3481 21.9489 61.8936 21.6577C61.439 21.3629 60.9152 21.2156 60.3222 21.2156C59.7291 21.2156 59.2053 21.3629 58.7508 21.6577C58.2963 21.9489 57.9394 22.3803 57.6801 22.9521C57.4244 23.5202 57.2966 24.218 57.2966 25.0455C57.2966 25.8729 57.4244 26.5724 57.6801 27.1442C57.9394 27.7124 58.2963 28.1438 58.7508 28.4386C59.2053 28.7298 59.7291 28.8754 60.3222 28.8754C60.9152 28.8754 61.439 28.7298 61.8936 28.4386C62.3481 28.1438 62.7032 27.7124 62.9589 27.1442C63.2181 26.5724 63.3477 25.8729 63.3477 25.0455Z"
          fill="#FFF2F1"/>
</svg>
