<svg width="16" height="15" viewBox="0 0 16 15" fill="none" xmlns="http://www.w3.org/2000/svg">
    <path d="M11.1292 9.37956H10.4709L10.2375 9.15456C11.0542 8.20456 11.5459 6.97122 11.5459 5.62956C11.5459 2.63789 9.12086 0.212891 6.12919 0.212891C3.13752 0.212891 0.712524 2.63789 0.712524 5.62956C0.712524 8.62122 3.13752 11.0462 6.12919 11.0462C7.47086 11.0462 8.70419 10.5546 9.65419 9.73789L9.87919 9.97122V10.6296L14.0459 14.7879L15.2875 13.5462L11.1292 9.37956ZM6.12919 9.37956C4.05419 9.37956 2.37919 7.70456 2.37919 5.62956C2.37919 3.55456 4.05419 1.87956 6.12919 1.87956C8.20419 1.87956 9.87919 3.55456 9.87919 5.62956C9.87919 7.70456 8.20419 9.37956 6.12919 9.37956Z"
          fill="white"/>
</svg>
