<svg width="40" height="40" viewBox="0 0 40 40" fill="none" xmlns="http://www.w3.org/2000/svg">
<path d="M0 12C0 5.37258 5.37258 0 12 0H28C34.6274 0 40 5.37258 40 12V28C40 34.6274 34.6274 40 28 40H12C5.37258 40 0 34.6274 0 28V12Z" fill="#7F207B"/>
<path d="M18 10.5H22C22.8339 10.5 23.5 11.1661 23.5 12V14.5H28C28.8339 14.5 29.5 15.1661 29.5 16V27C29.5 27.8339 28.8339 28.5 28 28.5H12C11.1661 28.5 10.5 27.8339 10.5 27L10.5098 16C10.5098 15.1629 11.1694 14.5 12 14.5H16.5V12C16.5 11.1661 17.1661 10.5 18 10.5ZM13 15.5C12.1739 15.5 11.5 16.1739 11.5 17V26C11.5 26.8261 12.1739 27.5 13 27.5H27C27.8261 27.5 28.5 26.8261 28.5 26V17C28.5 16.1739 27.8261 15.5 27 15.5H13ZM17.5 14.5H22.5V11.5H17.5V14.5Z" fill="#FFFBFB" stroke="#FFFBFB"/>
</svg>
