<svg width="30" height="31" viewBox="0 0 30 31" fill="none" xmlns="http://www.w3.org/2000/svg">
<path d="M22.667 14.25C23.3944 20.9693 26.25 23 26.25 23H3.75C3.75 23 7.5 20.3333 7.5 11C7.5 8.87827 8.29018 6.84344 9.6967 5.34315C11.1032 3.84285 13.0109 3 15 3C15.4217 3 15.8397 3.03788 16.25 3.11186" stroke="white" stroke-width="1.5" stroke-linecap="round" stroke-linejoin="round"/>
<path d="M23.75 10.5C25.8211 10.5 27.5 8.82107 27.5 6.75C27.5 4.67893 25.8211 3 23.75 3C21.6789 3 20 4.67893 20 6.75C20 8.82107 21.6789 10.5 23.75 10.5Z" stroke="white" stroke-width="1.5" stroke-linecap="round" stroke-linejoin="round"/>
<path d="M17.1619 26.75C16.9421 27.1288 16.6267 27.4433 16.2472 27.6619C15.8677 27.8805 15.4374 27.9956 14.9994 27.9956C14.5614 27.9956 14.1312 27.8805 13.7516 27.6619C13.3721 27.4433 13.0567 27.1288 12.8369 26.75" stroke="white" stroke-width="1.5" stroke-linecap="round" stroke-linejoin="round"/>
</svg>
