<svg width="30" height="31" viewBox="0 0 30 31" fill="none" xmlns="http://www.w3.org/2000/svg">
<path d="M20.625 26.75H23.9188C25.1445 26.75 26.0819 25.6574 25.8955 24.4459L24.0109 12.1959C23.8608 11.2202 23.0213 10.5 22.0342 10.5H7.96584C6.9787 10.5 6.1392 11.2202 5.98909 12.1959L4.10448 24.4459C3.91809 25.6574 4.85545 26.75 6.08122 26.75H9.375" stroke="white" stroke-width="1.5" stroke-linecap="round" stroke-linejoin="round"/>
<path d="M15 24.25V15.5M15 15.5L18.75 19.25M15 15.5L11.25 19.25" stroke="white" stroke-width="1.5" stroke-linecap="round" stroke-linejoin="round"/>
<path d="M17.5 6.75C17.5 5.36929 16.3807 4.25 15 4.25C13.6193 4.25 12.5 5.36929 12.5 6.75" stroke="white" stroke-width="1.5" stroke-linecap="round" stroke-linejoin="round"/>
</svg>
