<svg width="30" height="31" viewBox="0 0 30 31" fill="none" xmlns="http://www.w3.org/2000/svg">
<path d="M15 19.25C17.0711 19.25 18.75 17.5711 18.75 15.5C18.75 13.4289 17.0711 11.75 15 11.75C12.9289 11.75 11.25 13.4289 11.25 15.5C11.25 17.5711 12.9289 19.25 15 19.25Z" stroke="white" stroke-width="1.5" stroke-linecap="round" stroke-linejoin="round"/>
<path d="M24.5279 13.4942L23.1559 10.181L25 8L22.5 5.5L20.3309 7.35369L16.9472 5.96217L16.1692 3H13.7262L12.9364 6.00141L9.63051 7.39495L7.5 5.5L5 8L6.81671 10.2361L5.46563 13.5579L2.5 14.25V16.75L5.50139 17.5694L6.89469 20.8747L5 23L7.5 25.5L9.73895 23.6754L12.9963 25.0154L13.75 28H16.25L17.0057 25.0165L20.3189 23.6444C20.8711 24.0391 22.5 25.5 22.5 25.5L25 23L23.1449 20.8118L24.5173 17.4975L27.4998 16.7215L27.5 14.25L24.5279 13.4942Z" stroke="white" stroke-width="1.5" stroke-linecap="round" stroke-linejoin="round"/>
</svg>
