<svg width="12" height="11" viewBox="0 0 12 11" fill="none" xmlns="http://www.w3.org/2000/svg">
    <path d="M11.25 0.257943C10.925 -0.0670571 10.4 -0.0670571 10.075 0.257943L5.99998 4.32461L1.92498 0.249609C1.59998 -0.0753906 1.07498 -0.0753906 0.749976 0.249609C0.424976 0.574609 0.424976 1.09961 0.749976 1.42461L4.82498 5.49961L0.749976 9.57461C0.424976 9.89961 0.424976 10.4246 0.749976 10.7496C1.07498 11.0746 1.59998 11.0746 1.92498 10.7496L5.99998 6.67461L10.075 10.7496C10.4 11.0746 10.925 11.0746 11.25 10.7496C11.575 10.4246 11.575 9.89961 11.25 9.57461L7.17498 5.49961L11.25 1.42461C11.5666 1.10794 11.5666 0.57461 11.25 0.257943Z"
          fill="white"/>
</svg>
