<svg width="30" height="31" viewBox="0 0 30 31" fill="none" xmlns="http://www.w3.org/2000/svg">
<path d="M0 12.5C0 5.87258 5.37258 0.5 12 0.5H18C24.6274 0.5 30 5.87258 30 12.5V18.5C30 25.1274 24.6274 30.5 18 30.5H12C5.37258 30.5 0 25.1274 0 18.5V12.5Z" fill="#7F207B"/>
<path d="M15 5.5C9.47715 5.5 5 9.97715 5 15.5C5 21.0228 9.47715 25.5 15 25.5C20.5228 25.5 25 21.0228 25 15.5C25 9.97715 20.5228 5.5 15 5.5Z" fill="#7F207B" stroke="white" stroke-width="1.5" stroke-linecap="round" stroke-linejoin="round"/>
<path d="M7.27148 21.8457C7.27148 21.8457 9.50051 19 15.0005 19C20.5005 19 22.7295 21.8457 22.7295 21.8457" stroke="white" stroke-width="1.5" stroke-linecap="round" stroke-linejoin="round"/>
<path d="M15 15.5C16.6569 15.5 18 14.1569 18 12.5C18 10.8431 16.6569 9.5 15 9.5C13.3431 9.5 12 10.8431 12 12.5C12 14.1569 13.3431 15.5 15 15.5Z" stroke="white" stroke-width="1.5" stroke-linecap="round" stroke-linejoin="round"/>
</svg>
