<svg width="48" height="48" viewBox="0 0 48 48" fill="none" xmlns="http://www.w3.org/2000/svg">
<path d="M24 0C37.2548 0 48 10.7452 48 24C48 37.2548 37.2548 48 24 48C10.7452 48 0 37.2548 0 24C0 10.7452 10.7452 0 24 0Z" fill="#7F4DA0"/>
<path d="M30.3941 20.9589C30.2774 20.0106 29.9859 19.266 29.4683 18.6064C28.7962 17.7571 27.9372 17.2486 26.6655 16.9469C25.8368 16.7458 25.5019 16.7689 25.2022 17.0427C24.923 17.2992 24.8685 17.8134 25.0819 18.1464C25.2319 18.3881 25.405 18.4747 25.8864 18.5692C26.5275 18.6872 26.9706 18.8403 27.3736 19.0707C28.2291 19.5647 28.6274 20.3376 28.6701 21.5889C28.69 22.1765 28.7408 22.3571 28.946 22.5655C29.3264 22.9464 30.0033 22.8723 30.2904 22.4165C30.3958 22.2447 30.4118 22.1699 30.423 21.7709C30.4303 21.5239 30.4197 21.1563 30.3941 20.9589Z" fill="white"/>
<path d="M33.7447 22.0277C33.5757 19.1224 32.4393 16.7848 30.4055 15.1402C29.2597 14.2161 27.8746 13.5807 26.3563 13.2716C25.8001 13.1611 24.7762 13.0715 24.6005 13.1228C24.4347 13.1702 24.2003 13.3497 24.0958 13.512C23.9853 13.688 23.9604 14.0811 24.0546 14.3084C24.2068 14.6884 24.4899 14.8227 25.2826 14.892C26.5047 14.9989 27.7652 15.4283 28.7176 16.064C29.805 16.7877 30.6693 17.7776 31.2285 18.9408C31.7116 19.9402 32.0087 21.3805 32.0005 22.6703C31.9978 23.1368 32.0698 23.4002 32.2574 23.5929C32.5406 23.889 32.9533 23.9538 33.3176 23.7571C33.7213 23.5447 33.8157 23.1721 33.7447 22.0277Z" fill="white"/>
<path d="M37.4522 33.2159C37.3954 33.0498 37.2628 32.7937 37.1681 32.6466C36.5712 31.7453 33.3645 29.2358 31.7635 28.4151C30.8493 27.9455 30.172 27.7889 29.6699 27.9359C29.1299 28.0878 28.8457 28.3392 27.941 29.4635C27.5763 29.9142 27.2021 30.3364 27.1026 30.4027C26.8563 30.5735 26.3731 30.7112 26.0321 30.7112C25.2411 30.7063 23.8059 30.194 22.7022 29.5204C21.8449 28.9986 20.746 28.0641 19.9028 27.139C18.9081 26.0527 18.2308 25.0944 17.6955 24.0128C17.004 22.6229 16.8287 21.7737 17.1176 21.1522C17.1887 20.9957 17.2835 20.8297 17.326 20.7774C17.3687 20.7301 17.814 20.3647 18.3065 19.9663C19.2729 19.1978 19.4292 19.0223 19.6091 18.4957C19.8365 17.8268 19.775 17.1437 19.4244 16.4558C19.1544 15.934 18.4487 14.7955 17.9371 14.0602C17.2598 13.0925 15.5735 11.0241 15.2371 10.7442C14.6309 10.2509 13.8541 10.1654 12.9967 10.4976C12.0921 10.8486 10.3963 12.2148 9.67155 13.1684C9.01789 14.0317 8.76692 14.6437 8.72899 15.4501C8.69586 16.1142 8.75268 16.3894 9.1032 17.2386C11.8457 23.8989 15.9382 29.2168 21.5607 33.4389C24.4974 35.6447 27.5431 37.3241 30.7025 38.4721C32.545 39.141 33.3455 39.1742 34.2881 38.6239C34.686 38.3867 35.6712 37.3763 36.2207 36.641C37.1301 35.417 37.4665 34.8525 37.5612 34.4019C37.6275 34.0935 37.5754 33.5575 37.4522 33.2159Z" fill="white"/>
<path d="M37.1554 22.6945C37.0948 21.0511 36.8181 19.703 36.2411 18.2001C35.6714 16.7217 35.0949 15.757 34.0062 14.4522C32.9768 13.2288 32.1773 12.5302 30.9092 11.7526C29.1401 10.6692 26.9871 9.95229 24.5743 9.65077C23.7515 9.54539 23.5654 9.55292 23.3129 9.72136C22.8237 10.0404 22.8303 10.8363 23.321 11.1506C23.4834 11.2506 23.6276 11.287 24.2858 11.3732C25.2961 11.5092 25.9458 11.6374 26.7167 11.8477C29.7397 12.6741 32.0645 14.3633 33.6186 16.8707C34.9193 18.9607 35.4592 21.0509 35.3825 23.7203C35.3558 24.6228 35.3752 24.7816 35.5132 24.9984C35.7774 25.4026 36.474 25.4825 36.8315 25.1472C37.0538 24.9428 37.0958 24.7893 37.1396 24.0169C37.1606 23.614 37.1651 23.0192 37.1554 22.6945Z" fill="white"/>
</svg>
