<svg width="35" height="37" viewBox="0 0 35 37" fill="none" xmlns="http://www.w3.org/2000/svg">
<path d="M17.239 9.27288C12.085 9.27288 11.911 11.7509 11.911 18.5199C11.911 23.7889 12.503 26.1969 17.239 26.1969C22.219 26.1969 22.567 23.5449 22.567 17.6479C22.567 11.7859 22.219 9.27288 17.239 9.27288ZM19.781 19.5319C19.781 22.2539 19.677 23.4049 17.239 23.4049C14.801 23.4049 14.697 22.2879 14.697 19.6009V15.9369C14.697 13.2149 14.801 12.0639 17.239 12.0639C19.677 12.0639 19.781 13.1809 19.781 15.8679V19.5319ZM27.269 1.66488C26.224 0.652883 24.935 0.129883 23.368 0.129883H11.632C10.065 0.129883 8.741 0.652883 7.732 1.66488L1.498 7.87688C0.522 8.85388 0 10.1449 0 11.5759V23.5449C0 25.1849 0.557 26.4759 1.672 27.5579L7.592 33.4899C8.741 34.6419 10.065 35.1999 11.736 35.1649H23.333C24.935 35.1649 26.258 34.6759 27.477 33.4899L33.397 27.5579C34.477 26.4759 35.069 25.1849 35.069 23.5449V11.5759C35.069 10.1449 34.547 8.85388 33.571 7.87688L27.268 1.66588L27.269 1.66488ZM32.702 15.6579C32.702 16.0419 32.528 16.2509 32.145 16.2509H30.369V14.9949C30.369 14.0529 30.23 13.5989 29.429 13.5989H28.628C27.827 13.5989 27.688 14.0879 27.688 14.9949V16.2509H26.469C25.529 16.2509 25.076 16.3909 25.076 17.1929V18.0299C25.076 18.8329 25.564 18.9719 26.469 18.9719H27.723V20.2299C27.723 21.1719 27.862 21.6259 28.663 21.6259H29.464C30.265 21.6259 30.404 21.1379 30.404 20.2299V18.9739H32.18C32.528 18.9739 32.702 19.1479 32.737 19.4969V23.5449C32.737 24.5219 32.458 25.2549 31.762 25.9179L25.842 31.8499C25.145 32.5479 24.379 32.8619 23.439 32.8619H11.597C10.657 32.8619 9.891 32.5479 9.194 31.8499L3.274 25.9179C2.577 25.2199 2.264 24.5219 2.299 23.5449V11.8549C2.2872 11.3811 2.374 10.91 2.5539 10.4716C2.73379 10.0331 3.00285 9.63685 3.344 9.30788L9.334 3.20088C9.926 2.60788 10.727 2.39788 11.598 2.39788H23.404C24.275 2.39788 25.041 2.57188 25.668 3.20088L31.693 9.30788C32.39 10.0409 32.738 10.8779 32.738 11.8549V15.6589H32.703L32.702 15.6579Z" fill="#7F207B"/>
</svg>
