<svg width="20" height="20" viewBox="0 0 20 20" fill="none" xmlns="http://www.w3.org/2000/svg">
<path d="M15.8333 2.49998H12.35C12 1.53331 11.0833 0.833313 10 0.833313C8.91667 0.833313 8 1.53331 7.65 2.49998H4.16667C3.25 2.49998 2.5 3.24998 2.5 4.16665V15.8333C2.5 16.75 3.25 17.5 4.16667 17.5H15.8333C16.75 17.5 17.5 16.75 17.5 15.8333V4.16665C17.5 3.24998 16.75 2.49998 15.8333 2.49998ZM10 2.49998C10.4583 2.49998 10.8333 2.87498 10.8333 3.33331C10.8333 3.79165 10.4583 4.16665 10 4.16665C9.54167 4.16665 9.16667 3.79165 9.16667 3.33331C9.16667 2.87498 9.54167 2.49998 10 2.49998ZM10 5.83331C11.3833 5.83331 12.5 6.94998 12.5 8.33331C12.5 9.71665 11.3833 10.8333 10 10.8333C8.61667 10.8333 7.5 9.71665 7.5 8.33331C7.5 6.94998 8.61667 5.83331 10 5.83331ZM15 15.8333H5V14.6666C5 13 8.33333 12.0833 10 12.0833C11.6667 12.0833 15 13 15 14.6666V15.8333Z" fill="white"/>
</svg>
