<svg width="30" height="31" viewBox="0 0 30 31" fill="none" xmlns="http://www.w3.org/2000/svg">
    <path d="M15 26.75L13.1875 25.125C11.0833 23.2292 9.34375 21.5938 7.96875 20.2188C6.59375 18.8438 5.5 17.6146 4.6875 16.5313C3.875 15.4271 3.30208 14.4167 2.96875 13.5C2.65625 12.5833 2.5 11.6458 2.5 10.6875C2.5 8.72917 3.15625 7.09375 4.46875 5.78125C5.78125 4.46875 7.41667 3.8125 9.375 3.8125C10.4583 3.8125 11.4896 4.04167 12.4688 4.5C13.4479 4.95833 14.2917 5.60417 15 6.4375C15.7083 5.60417 16.5521 4.95833 17.5313 4.5C18.5104 4.04167 19.5417 3.8125 20.625 3.8125C22.5833 3.8125 24.2188 4.46875 25.5313 5.78125C26.8438 7.09375 27.5 8.72917 27.5 10.6875C27.5 11.6458 27.3333 12.5833 27 13.5C26.6875 14.4167 26.125 15.4271 25.3125 16.5313C24.5 17.6146 23.4063 18.8438 22.0313 20.2188C20.6563 21.5938 18.9167 23.2292 16.8125 25.125L15 26.75ZM15 23.375C17 21.5833 18.6458 20.0521 19.9375 18.7812C21.2292 17.4896 22.25 16.375 23 15.4375C23.75 14.4792 24.2708 13.6354 24.5625 12.9063C24.8542 12.1563 25 11.4167 25 10.6875C25 9.4375 24.5833 8.39583 23.75 7.5625C22.9167 6.72917 21.875 6.3125 20.625 6.3125C19.6458 6.3125 18.7396 6.59375 17.9063 7.15625C17.0729 7.69792 16.5 8.39583 16.1875 9.25H13.8125C13.5 8.39583 12.9271 7.69792 12.0938 7.15625C11.2604 6.59375 10.3542 6.3125 9.375 6.3125C8.125 6.3125 7.08333 6.72917 6.25 7.5625C5.41667 8.39583 5 9.4375 5 10.6875C5 11.4167 5.14583 12.1563 5.4375 12.9063C5.72917 13.6354 6.25 14.4792 7 15.4375C7.75 16.375 8.77083 17.4896 10.0625 18.7812C11.3542 20.0521 13 21.5833 15 23.375Z"
          fill="#1D1B20"/>
</svg>
